<svg xmlns="http://www.w3.org/2000/svg" viewBox="0 0 600 600">
  <defs><linearGradient id="bg" x1="0" x2="1" y1="0" y2="1"><stop stop-color="#7fe7ff"/><stop offset="1" stop-color="#7638ff"/></linearGradient></defs>
  <rect width="600" height="600" fill="url(#bg)"/>
  <circle cx="102" cy="112" r="95" fill="#fff" opacity=".25"/>
  <path d="M198 160h204l-28 306c-3 36-31 64-67 64h-14c-36 0-64-28-67-64z" fill="#e9fbff" opacity=".92"/>
  <path d="M226 241h148l-20 211c-2 23-21 41-44 41h-20c-23 0-42-18-44-41z" fill="#00a8ff"/>
  <path d="M233 287h136l-13 126c-36 21-79-13-122 9z" fill="#7fe7ff" opacity=".65"/>
  <circle cx="264" cy="230" r="15" fill="#fff"/><circle cx="322" cy="266" r="18" fill="#fff"/>
  <circle cx="405" cy="205" r="44" fill="#ff8a1f"/><circle cx="405" cy="205" r="29" fill="#ffd089"/>
</svg>
