<svg xmlns="http://www.w3.org/2000/svg" viewBox="0 0 600 600">
  <defs><linearGradient id="bg" x1="0" x2="1" y1="0" y2="1"><stop stop-color="#f8c968"/><stop offset="1" stop-color="#b45309"/></linearGradient></defs>
  <rect width="600" height="600" fill="url(#bg)"/>
  <circle cx="124" cy="116" r="90" fill="#fff" opacity=".2"/>
  <path d="M188 158h224v306c0 37-30 67-67 67h-90c-37 0-67-30-67-67z" fill="#fff6e7" opacity=".94"/>
  <path d="M220 284h160v170c0 24-20 44-44 44h-72c-24 0-44-20-44-44z" fill="#c77722"/>
  <path d="M224 255h152c-15 26-43 42-76 42s-61-16-76-42z" fill="#fff" opacity=".8"/>
  <circle cx="382" cy="224" r="41" fill="#ff8a1f"/><circle cx="382" cy="224" r="25" fill="#ffd089"/>
  <circle cx="300" cy="236" r="18" fill="#fff"/>
</svg>
